REM DIRINDEX 1\2,1\3,1\4,1\5
REM DIRNAME cjc004,folder01,folder02,folder03,folder04
TITLE ""
FILE "1Q_t_0672-0681.mp3" MP3
  TRACK 01 AUDIO
    TITLE "3:cjc004_2918"
    INDEX 01 00:00:00
  TRACK 02 AUDIO
    TITLE "0:"
    INDEX 01 00:00:72
  TRACK 03 AUDIO
    TITLE "4:cjc004_2919"
    INDEX 01 00:01:28
  TRACK 04 AUDIO
    TITLE "0:"
    INDEX 01 00:02:67
  TRACK 05 AUDIO
    TITLE "5:cjc004_2920"
    INDEX 01 00:03:17
  TRACK 06 AUDIO
    TITLE "0:"
    INDEX 01 00:07:13
  TRACK 07 AUDIO
    TITLE "3:cjc004_2921"
    INDEX 01 00:07:68
  TRACK 08 AUDIO
    TITLE "0:"
    INDEX 01 00:09:32
  TRACK 09 AUDIO
    TITLE "4:cjc004_2922"
    INDEX 01 00:09:63
  TRACK 10 AUDIO
    TITLE "0:"
    INDEX 01 00:10:72
  TRACK 11 AUDIO
    TITLE "5:cjc004_2923"
    INDEX 01 00:11:23
  TRACK 12 AUDIO
    TITLE "0:"
    INDEX 01 00:15:09
  TRACK 13 AUDIO
    TITLE "3:cjc004_2924"
    INDEX 01 00:15:58
  TRACK 14 AUDIO
    TITLE "0:"
    INDEX 01 00:16:69
  TRACK 15 AUDIO
    TITLE "4:cjc004_2925"
    INDEX 01 00:17:25
  TRACK 16 AUDIO
    TITLE "0:"
    INDEX 01 00:18:54
  TRACK 17 AUDIO
    TITLE "5:cjc004_2926"
    INDEX 01 00:19:05
  TRACK 18 AUDIO
    TITLE "0:"
    INDEX 01 00:24:29
  TRACK 19 AUDIO
    TITLE "3:cjc004_2927"
    INDEX 01 00:25:01
  TRACK 20 AUDIO
    TITLE "0:"
    INDEX 01 00:26:18
  TRACK 21 AUDIO
    TITLE "4:cjc004_2928"
    INDEX 01 00:26:44
  TRACK 22 AUDIO
    TITLE "0:"
    INDEX 01 00:28:35
  TRACK 23 AUDIO
    TITLE "5:cjc004_2929"
    INDEX 01 00:28:59
  TRACK 24 AUDIO
    TITLE "0:"
    INDEX 01 00:32:33
  TRACK 25 AUDIO
    TITLE "3:cjc004_2930"
    INDEX 01 00:33:13
  TRACK 26 AUDIO
    TITLE "0:"
    INDEX 01 00:34:36
  TRACK 27 AUDIO
    TITLE "4:cjc004_2931"
    INDEX 01 00:34:65
  TRACK 28 AUDIO
    TITLE "0:"
    INDEX 01 00:36:44
  TRACK 29 AUDIO
    TITLE "5:cjc004_2932"
    INDEX 01 00:36:66
  TRACK 30 AUDIO
    TITLE "0:"
    INDEX 01 00:42:08
  TRACK 31 AUDIO
    TITLE "3:cjc004_2933"
    INDEX 01 00:42:65
  TRACK 32 AUDIO
    TITLE "0:"
    INDEX 01 00:43:64
  TRACK 33 AUDIO
    TITLE "4:cjc004_2934"
    INDEX 01 00:44:14
  TRACK 34 AUDIO
    TITLE "0:"
    INDEX 01 00:45:57
  TRACK 35 AUDIO
    TITLE "5:cjc004_2935"
    INDEX 01 00:46:04
  TRACK 36 AUDIO
    TITLE "0:"
    INDEX 01 00:50:64
  TRACK 37 AUDIO
    TITLE "3:cjc004_2936"
    INDEX 01 00:51:38
  TRACK 38 AUDIO
    TITLE "0:"
    INDEX 01 00:52:67
  TRACK 39 AUDIO
    TITLE "4:cjc004_2937"
    INDEX 01 00:53:17
  TRACK 40 AUDIO
    TITLE "0:"
    INDEX 01 00:54:44
  TRACK 41 AUDIO
    TITLE "5:cjc004_2938"
    INDEX 01 00:54:70
  TRACK 42 AUDIO
    TITLE "0:"
    INDEX 01 01:01:13
  TRACK 43 AUDIO
    TITLE "3:cjc004_2939"
    INDEX 01 01:01:66
  TRACK 44 AUDIO
    TITLE "0:"
    INDEX 01 01:03:00
  TRACK 45 AUDIO
    TITLE "4:cjc004_2940"
    INDEX 01 01:03:26
  TRACK 46 AUDIO
    TITLE "0:"
    INDEX 01 01:04:33
  TRACK 47 AUDIO
    TITLE "5:cjc004_2941"
    INDEX 01 01:04:54
  TRACK 48 AUDIO
    TITLE "0:"
    INDEX 01 01:10:06
  TRACK 49 AUDIO
    TITLE "3:cjc004_2942"
    INDEX 01 01:10:61
  TRACK 50 AUDIO
    TITLE "0:"
    INDEX 01 01:12:19
  TRACK 51 AUDIO
    TITLE "4:cjc004_2943"
    INDEX 01 01:12:46
  TRACK 52 AUDIO
    TITLE "0:"
    INDEX 01 01:14:08
  TRACK 53 AUDIO
    TITLE "5:cjc004_2944"
    INDEX 01 01:14:29
  TRACK 54 AUDIO
    TITLE "0:"
    INDEX 01 01:18:35
  TRACK 55 AUDIO
    TITLE "3:cjc004_2945"
    INDEX 01 01:19:17
  TRACK 56 AUDIO
    TITLE "0:"
    INDEX 01 01:20:38
  TRACK 57 AUDIO
    TITLE "4:cjc004_2946"
    INDEX 01 01:20:69
  TRACK 58 AUDIO
    TITLE "0:"
    INDEX 01 01:22:25
  TRACK 59 AUDIO
    TITLE "5:cjc004_2947"
    INDEX 01 01:22:54
  TRACK 60 AUDIO
    TITLE "0:"
    INDEX 01 01:27:50
